<?xml version="1.0" encoding="UTF-8" standalone="no"?>
<!DOCTYPE svg PUBLIC "-//W3C//DTD SVG 1.1//EN" "http://www.w3.org/Graphics/SVG/1.1/DTD/svg11.dtd">
<svg width="100%" height="100%" viewBox="0 0 1400 1080" version="1.1" xmlns="http://www.w3.org/2000/svg" xmlns:xlink="http://www.w3.org/1999/xlink" xml:space="preserve" xmlns:serif="http://www.serif.com/" style="fill-rule:evenodd;clip-rule:evenodd;stroke-linejoin:round;stroke-miterlimit:2;">
    <g>
        <g id="TRMNL-Frame" serif:id="TRMNL Frame" transform="matrix(1.59251,0,0,1.59251,19.7482,82.4464)">
            <g>
                <g id="Rectangle">
                    <path id="path-2" d="M28.203,0L826.111,0C835.918,-0 839.474,1.021 843.059,2.938C846.644,4.856 849.458,7.67 851.376,11.255C853.293,14.84 854.314,18.396 854.314,28.203L854.314,546.429C854.314,556.236 853.293,559.792 851.376,563.377C849.458,566.962 846.644,569.776 843.059,571.694C839.474,573.611 835.918,574.632 826.111,574.632L28.203,574.632C18.396,574.632 14.84,573.611 11.255,571.694C7.67,569.776 4.856,566.962 2.938,563.377C1.021,559.792 0,556.236 -0,546.429L0,28.203C0,18.396 1.021,14.84 2.938,11.255C4.856,7.67 7.67,4.856 11.255,2.938C14.84,1.021 18.396,0 28.203,0Z"/>
                    <path id="path-21" serif:id="path-2" d="M28.203,0L826.111,0C835.918,-0 839.474,1.021 843.059,2.938C846.644,4.856 849.458,7.67 851.376,11.255C853.293,14.84 854.314,18.396 854.314,28.203L854.314,546.429C854.314,556.236 853.293,559.792 851.376,563.377C849.458,566.962 846.644,569.776 843.059,571.694C839.474,573.611 835.918,574.632 826.111,574.632L28.203,574.632C18.396,574.632 14.84,573.611 11.255,571.694C7.67,569.776 4.856,566.962 2.938,563.377C1.021,559.792 0,556.236 -0,546.429L0,28.203C0,18.396 1.021,14.84 2.938,11.255C4.856,7.67 7.67,4.856 11.255,2.938C14.84,1.021 18.396,0 28.203,0Z" style="fill:url(#_Linear1);"/>
                </g>
                <g id="Rectangle1" serif:id="Rectangle">
                    <path id="path-4" d="M38.537,27L815.463,27C819.474,27 820.929,27.418 822.396,28.202C823.862,28.986 825.014,30.138 825.798,31.604C826.582,33.071 827,34.526 827,38.537L827,495.463C827,499.474 826.582,500.929 825.798,502.396C825.014,503.862 823.862,505.014 822.396,505.798C820.929,506.582 819.474,507 815.463,507L38.537,507C34.526,507 33.071,506.582 31.604,505.798C30.138,505.014 28.986,503.862 28.202,502.396C27.418,500.929 27,499.474 27,495.463L27,38.537C27,34.526 27.418,33.071 28.202,31.604C28.986,30.138 30.138,28.986 31.604,28.202C33.071,27.418 34.526,27 38.537,27Z" style="fill:rgb(228,226,225);"/>
                </g>
                <g id="logo--brand-vector" serif:id="logo--brand@vector" transform="matrix(1,0,0,1,363,529)">
                    <g id="Path">
                        <path id="path-6" d="M30.443,6.943L30.443,4.151L46.357,4.151L46.357,6.943L39.92,6.943L39.92,18.681L36.899,18.681L36.899,6.943L30.443,6.943Z" style="fill:rgb(89,89,89);"/>
                        <path id="path-61" serif:id="path-6" d="M30.443,6.943L30.443,4.151L46.357,4.151L46.357,6.943L39.92,6.943L39.92,18.681L36.899,18.681L36.899,6.943L30.443,6.943Z"/>
                    </g>
                    <g id="Shape">
                        <path id="path-8" d="M49.816,4.151L49.816,18.681L52.852,18.681L52.852,13.591L61.072,13.591C61.644,13.591 62.018,13.719 62.251,13.944C62.478,14.164 62.618,14.526 62.618,15.115L62.618,18.681L65.636,18.681L65.636,14.74C65.636,13.847 65.345,13.115 64.815,12.601C64.512,12.306 64.139,12.091 63.713,11.956C64.221,11.696 64.641,11.355 64.965,10.933C65.476,10.267 65.73,9.425 65.73,8.447C65.73,7.07 65.292,5.975 64.358,5.234C63.438,4.505 62.075,4.151 60.283,4.151L49.816,4.151ZM59.756,10.879L52.852,10.879L52.852,6.844L59.756,6.844C60.761,6.844 61.478,6.983 61.94,7.288C62.376,7.576 62.618,8.035 62.618,8.802C62.618,9.581 62.373,10.074 61.933,10.388C61.471,10.716 60.755,10.879 59.756,10.879Z" style="fill:rgb(89,89,89);"/>
                        <path id="path-81" serif:id="path-8" d="M49.816,4.151L49.816,18.681L52.852,18.681L52.852,13.591L61.072,13.591C61.644,13.591 62.018,13.719 62.251,13.944C62.478,14.164 62.618,14.526 62.618,15.115L62.618,18.681L65.636,18.681L65.636,14.74C65.636,13.847 65.345,13.115 64.815,12.601C64.512,12.306 64.139,12.091 63.713,11.956C64.221,11.696 64.641,11.355 64.965,10.933C65.476,10.267 65.73,9.425 65.73,8.447C65.73,7.07 65.292,5.975 64.358,5.234C63.438,4.505 62.075,4.151 60.283,4.151L49.816,4.151ZM59.756,10.879L52.852,10.879L52.852,6.844L59.756,6.844C60.761,6.844 61.478,6.983 61.94,7.288C62.376,7.576 62.618,8.035 62.618,8.802C62.618,9.581 62.373,10.074 61.933,10.388C61.471,10.716 60.755,10.879 59.756,10.879Z"/>
                    </g>
                    <g id="Path1" serif:id="Path">
                        <path id="path-10" d="M68.497,18.681L68.497,4.151L72.908,4.151L79.241,15.01L85.554,4.151L89.946,4.151L89.946,18.681L86.78,18.681L86.78,7.964L80.621,18.681L77.842,18.681L71.683,7.964L71.683,18.681L68.497,18.681Z" style="fill:rgb(89,89,89);"/>
                        <path id="path-101" serif:id="path-10" d="M68.497,18.681L68.497,4.151L72.908,4.151L79.241,15.01L85.554,4.151L89.946,4.151L89.946,18.681L86.78,18.681L86.78,7.964L80.621,18.681L77.842,18.681L71.683,7.964L71.683,18.681L68.497,18.681Z"/>
                    </g>
                    <g id="Path2" serif:id="Path">
                        <path id="path-12" d="M97.435,4.151L93.405,4.151L93.405,18.681L96.407,18.681L96.407,7.51L106,18.681L110.011,18.681L110.011,4.151L107.028,4.151L107.028,15.322L97.435,4.151Z" style="fill:rgb(89,89,89);"/>
                        <path id="path-121" serif:id="path-12" d="M97.435,4.151L93.405,4.151L93.405,18.681L96.407,18.681L96.407,7.51L106,18.681L110.011,18.681L110.011,4.151L107.028,4.151L107.028,15.322L97.435,4.151Z"/>
                    </g>
                    <g id="Path3" serif:id="Path">
                        <path id="path-14" d="M117.38,4.151L114.162,4.151L114.162,18.681L128,18.681L128,15.89L117.38,15.89L117.38,4.151Z" style="fill:rgb(89,89,89);"/>
                        <path id="path-141" serif:id="path-14" d="M117.38,4.151L114.162,4.151L114.162,18.681L128,18.681L128,15.89L117.38,15.89L117.38,4.151Z"/>
                    </g>
                    <g id="Path4" serif:id="Path">
                        <path id="path-16" d="M6.144,0.692L13.146,3.375L11.846,6.919L4.843,4.235L6.144,0.692Z" style="fill:rgb(89,89,89);"/>
                        <path id="path-161" serif:id="path-16" d="M6.144,0.692L13.146,3.375L11.846,6.919L4.843,4.235L6.144,0.692Z"/>
                    </g>
                    <g id="Path5" serif:id="Path">
                        <path id="path-18" d="M17.596,0L20.065,7.151L16.306,8.303L13.838,1.152L17.596,0Z" style="fill:rgb(89,89,89);"/>
                        <path id="path-181" serif:id="path-18" d="M17.596,0L20.065,7.151L16.306,8.303L13.838,1.152L17.596,0Z"/>
                    </g>
                    <g id="Path6" serif:id="Path">
                        <path id="path-20" d="M25.6,8.272L21.253,14.53L17.989,12.485L22.337,6.227L25.6,8.272Z" style="fill:rgb(89,89,89);"/>
                        <path id="path-201" serif:id="path-20" d="M25.6,8.272L21.253,14.53L17.989,12.485L22.337,6.227L25.6,8.272Z"/>
                    </g>
                    <g id="Path7" serif:id="Path">
                        <path id="path-22" d="M22.832,20.01L15.547,20.757L15.222,16.66L22.507,15.914L22.832,20.01Z" style="fill:rgb(89,89,89);"/>
                        <path id="path-221" serif:id="path-22" d="M22.832,20.01L15.547,20.757L15.222,16.66L22.507,15.914L22.832,20.01Z"/>
                    </g>
                    <g id="Path8" serif:id="Path">
                        <path id="path-24" d="M14.009,24.908L8.995,19.274L11.591,16.605L16.605,22.239L14.009,24.908Z" style="fill:rgb(89,89,89);"/>
                        <path id="path-241" serif:id="path-24" d="M14.009,24.908L8.995,19.274L11.591,16.605L16.605,22.239L14.009,24.908Z"/>
                    </g>
                    <g id="Path9" serif:id="Path">
                        <path id="path-26" d="M2.768,20.971L3.955,13.838L8.303,14.315L7.116,21.449L2.768,20.971Z" style="fill:rgb(89,89,89);"/>
                        <path id="path-261" serif:id="path-26" d="M2.768,20.971L3.955,13.838L8.303,14.315L7.116,21.449L2.768,20.971Z"/>
                    </g>
                    <g id="Path10" serif:id="Path">
                        <path id="path-28" d="M0,10.011L6.406,6.227L8.303,9.362L1.897,13.146L0,10.011Z" style="fill:rgb(89,89,89);"/>
                        <path id="path-281" serif:id="path-28" d="M0,10.011L6.406,6.227L8.303,9.362L1.897,13.146L0,10.011Z"/>
                    </g>
                </g>
            </g>
            <g>
                <g id="Rectangle2" serif:id="Rectangle">
                    <path id="path-23" serif:id="path-2" d="M28.203,0L826.111,0C835.918,-0 839.474,1.021 843.059,2.938C846.644,4.856 849.458,7.67 851.376,11.255C853.293,14.84 854.314,18.396 854.314,28.203L854.314,546.429C854.314,556.236 853.293,559.792 851.376,563.377C849.458,566.962 846.644,569.776 843.059,571.694C839.474,573.611 835.918,574.632 826.111,574.632L28.203,574.632C18.396,574.632 14.84,573.611 11.255,571.694C7.67,569.776 4.856,566.962 2.938,563.377C1.021,559.792 0,556.236 -0,546.429L0,28.203C0,18.396 1.021,14.84 2.938,11.255C4.856,7.67 7.67,4.856 11.255,2.938C14.84,1.021 18.396,0 28.203,0Z"/>
                    <path id="path-25" serif:id="path-2" d="M28.203,0L826.111,0C835.918,-0 839.474,1.021 843.059,2.938C846.644,4.856 849.458,7.67 851.376,11.255C853.293,14.84 854.314,18.396 854.314,28.203L854.314,546.429C854.314,556.236 853.293,559.792 851.376,563.377C849.458,566.962 846.644,569.776 843.059,571.694C839.474,573.611 835.918,574.632 826.111,574.632L28.203,574.632C18.396,574.632 14.84,573.611 11.255,571.694C7.67,569.776 4.856,566.962 2.938,563.377C1.021,559.792 0,556.236 -0,546.429L0,28.203C0,18.396 1.021,14.84 2.938,11.255C4.856,7.67 7.67,4.856 11.255,2.938C14.84,1.021 18.396,0 28.203,0Z" style="fill:url(#_Linear2);"/>
                </g>
                <g id="Rectangle3" serif:id="Rectangle">
                    <path id="path-41" serif:id="path-4" d="M38.537,27L815.463,27C819.474,27 820.929,27.418 822.396,28.202C823.862,28.986 825.014,30.138 825.798,31.604C826.582,33.071 827,34.526 827,38.537L827,495.463C827,499.474 826.582,500.929 825.798,502.396C825.014,503.862 823.862,505.014 822.396,505.798C820.929,506.582 819.474,507 815.463,507L38.537,507C34.526,507 33.071,506.582 31.604,505.798C30.138,505.014 28.986,503.862 28.202,502.396C27.418,500.929 27,499.474 27,495.463L27,38.537C27,34.526 27.418,33.071 28.202,31.604C28.986,30.138 30.138,28.986 31.604,28.202C33.071,27.418 34.526,27 38.537,27Z" style="fill:rgb(228,226,225);"/>
                </g>
                <g id="logo--brand-vector1" serif:id="logo--brand@vector" transform="matrix(1,0,0,1,363,529)">
                    <g id="Path11" serif:id="Path">
                        <path id="path-62" serif:id="path-6" d="M30.443,6.943L30.443,4.151L46.357,4.151L46.357,6.943L39.92,6.943L39.92,18.681L36.899,18.681L36.899,6.943L30.443,6.943Z" style="fill:rgb(89,89,89);"/>
                        <path id="path-63" serif:id="path-6" d="M30.443,6.943L30.443,4.151L46.357,4.151L46.357,6.943L39.92,6.943L39.92,18.681L36.899,18.681L36.899,6.943L30.443,6.943Z"/>
                    </g>
                    <g id="Shape1" serif:id="Shape">
                        <path id="path-82" serif:id="path-8" d="M49.816,4.151L49.816,18.681L52.852,18.681L52.852,13.591L61.072,13.591C61.644,13.591 62.018,13.719 62.251,13.944C62.478,14.164 62.618,14.526 62.618,15.115L62.618,18.681L65.636,18.681L65.636,14.74C65.636,13.847 65.345,13.115 64.815,12.601C64.512,12.306 64.139,12.091 63.713,11.956C64.221,11.696 64.641,11.355 64.965,10.933C65.476,10.267 65.73,9.425 65.73,8.447C65.73,7.07 65.292,5.975 64.358,5.234C63.438,4.505 62.075,4.151 60.283,4.151L49.816,4.151ZM59.756,10.879L52.852,10.879L52.852,6.844L59.756,6.844C60.761,6.844 61.478,6.983 61.94,7.288C62.376,7.576 62.618,8.035 62.618,8.802C62.618,9.581 62.373,10.074 61.933,10.388C61.471,10.716 60.755,10.879 59.756,10.879Z" style="fill:rgb(89,89,89);"/>
                        <path id="path-83" serif:id="path-8" d="M49.816,4.151L49.816,18.681L52.852,18.681L52.852,13.591L61.072,13.591C61.644,13.591 62.018,13.719 62.251,13.944C62.478,14.164 62.618,14.526 62.618,15.115L62.618,18.681L65.636,18.681L65.636,14.74C65.636,13.847 65.345,13.115 64.815,12.601C64.512,12.306 64.139,12.091 63.713,11.956C64.221,11.696 64.641,11.355 64.965,10.933C65.476,10.267 65.73,9.425 65.73,8.447C65.73,7.07 65.292,5.975 64.358,5.234C63.438,4.505 62.075,4.151 60.283,4.151L49.816,4.151ZM59.756,10.879L52.852,10.879L52.852,6.844L59.756,6.844C60.761,6.844 61.478,6.983 61.94,7.288C62.376,7.576 62.618,8.035 62.618,8.802C62.618,9.581 62.373,10.074 61.933,10.388C61.471,10.716 60.755,10.879 59.756,10.879Z"/>
                    </g>
                    <g id="Path12" serif:id="Path">
                        <path id="path-102" serif:id="path-10" d="M68.497,18.681L68.497,4.151L72.908,4.151L79.241,15.01L85.554,4.151L89.946,4.151L89.946,18.681L86.78,18.681L86.78,7.964L80.621,18.681L77.842,18.681L71.683,7.964L71.683,18.681L68.497,18.681Z" style="fill:rgb(89,89,89);"/>
                        <path id="path-103" serif:id="path-10" d="M68.497,18.681L68.497,4.151L72.908,4.151L79.241,15.01L85.554,4.151L89.946,4.151L89.946,18.681L86.78,18.681L86.78,7.964L80.621,18.681L77.842,18.681L71.683,7.964L71.683,18.681L68.497,18.681Z"/>
                    </g>
                    <g id="Path13" serif:id="Path">
                        <path id="path-122" serif:id="path-12" d="M97.435,4.151L93.405,4.151L93.405,18.681L96.407,18.681L96.407,7.51L106,18.681L110.011,18.681L110.011,4.151L107.028,4.151L107.028,15.322L97.435,4.151Z" style="fill:rgb(89,89,89);"/>
                        <path id="path-123" serif:id="path-12" d="M97.435,4.151L93.405,4.151L93.405,18.681L96.407,18.681L96.407,7.51L106,18.681L110.011,18.681L110.011,4.151L107.028,4.151L107.028,15.322L97.435,4.151Z"/>
                    </g>
                    <g id="Path14" serif:id="Path">
                        <path id="path-142" serif:id="path-14" d="M117.38,4.151L114.162,4.151L114.162,18.681L128,18.681L128,15.89L117.38,15.89L117.38,4.151Z" style="fill:rgb(89,89,89);"/>
                        <path id="path-143" serif:id="path-14" d="M117.38,4.151L114.162,4.151L114.162,18.681L128,18.681L128,15.89L117.38,15.89L117.38,4.151Z"/>
                    </g>
                    <g id="Path15" serif:id="Path">
                        <path id="path-162" serif:id="path-16" d="M6.144,0.692L13.146,3.375L11.846,6.919L4.843,4.235L6.144,0.692Z" style="fill:rgb(89,89,89);"/>
                        <path id="path-163" serif:id="path-16" d="M6.144,0.692L13.146,3.375L11.846,6.919L4.843,4.235L6.144,0.692Z"/>
                    </g>
                    <g id="Path16" serif:id="Path">
                        <path id="path-182" serif:id="path-18" d="M17.596,0L20.065,7.151L16.306,8.303L13.838,1.152L17.596,0Z" style="fill:rgb(89,89,89);"/>
                        <path id="path-183" serif:id="path-18" d="M17.596,0L20.065,7.151L16.306,8.303L13.838,1.152L17.596,0Z"/>
                    </g>
                    <g id="Path17" serif:id="Path">
                        <path id="path-202" serif:id="path-20" d="M25.6,8.272L21.253,14.53L17.989,12.485L22.337,6.227L25.6,8.272Z" style="fill:rgb(89,89,89);"/>
                        <path id="path-203" serif:id="path-20" d="M25.6,8.272L21.253,14.53L17.989,12.485L22.337,6.227L25.6,8.272Z"/>
                    </g>
                    <g id="Path18" serif:id="Path">
                        <path id="path-222" serif:id="path-22" d="M22.832,20.01L15.547,20.757L15.222,16.66L22.507,15.914L22.832,20.01Z" style="fill:rgb(89,89,89);"/>
                        <path id="path-223" serif:id="path-22" d="M22.832,20.01L15.547,20.757L15.222,16.66L22.507,15.914L22.832,20.01Z"/>
                    </g>
                    <g id="Path19" serif:id="Path">
                        <path id="path-242" serif:id="path-24" d="M14.009,24.908L8.995,19.274L11.591,16.605L16.605,22.239L14.009,24.908Z" style="fill:rgb(89,89,89);"/>
                        <path id="path-243" serif:id="path-24" d="M14.009,24.908L8.995,19.274L11.591,16.605L16.605,22.239L14.009,24.908Z"/>
                    </g>
                    <g id="Path20" serif:id="Path">
                        <path id="path-262" serif:id="path-26" d="M2.768,20.971L3.955,13.838L8.303,14.315L7.116,21.449L2.768,20.971Z" style="fill:rgb(89,89,89);"/>
                        <path id="path-263" serif:id="path-26" d="M2.768,20.971L3.955,13.838L8.303,14.315L7.116,21.449L2.768,20.971Z"/>
                    </g>
                    <g id="Path21" serif:id="Path">
                        <path id="path-282" serif:id="path-28" d="M0,10.011L6.406,6.227L8.303,9.362L1.897,13.146L0,10.011Z" style="fill:rgb(89,89,89);"/>
                        <path id="path-283" serif:id="path-28" d="M0,10.011L6.406,6.227L8.303,9.362L1.897,13.146L0,10.011Z"/>
                    </g>
                </g>
            </g>
        </g>
    </g>
    <defs>
        <linearGradient id="_Linear1" x1="0" y1="0" x2="1" y2="0" gradientUnits="userSpaceOnUse" gradientTransform="matrix(3.46276e-14,565.512,-565.512,3.46276e-14,427.157,1.69526)"><stop offset="0" style="stop-color:rgb(65,65,65);stop-opacity:1"/><stop offset="1" style="stop-color:rgb(49,49,49);stop-opacity:1"/></linearGradient>
        <linearGradient id="_Linear2" x1="0" y1="0" x2="1" y2="0" gradientUnits="userSpaceOnUse" gradientTransform="matrix(3.46276e-14,565.512,-565.512,3.46276e-14,427.157,1.69526)"><stop offset="0" style="stop-color:rgb(65,65,65);stop-opacity:1"/><stop offset="1" style="stop-color:rgb(49,49,49);stop-opacity:1"/></linearGradient>
    </defs>
</svg>
